<?xml version="1.0" encoding="iso-8859-1"?>
<!-- Generator: Adobe Illustrator 19.0.0, SVG Export Plug-In . SVG Version: 6.00 Build 0)  -->
<svg version="1.1" id="Layer_1" xmlns="http://www.w3.org/2000/svg" xmlns:xlink="http://www.w3.org/1999/xlink" x="0px" y="0px"
	 viewBox="0 0 512 512" style="enable-background:new 0 0 512 512;" xml:space="preserve">
<g transform="translate(1 1)">
	<g>
		<rect x="255" y="22.273" style="fill:#E2E3E5;" width="23.273" height="488.727"/>
		<rect x="22.273" y="255" style="fill:#E2E3E5;" width="488.727" height="23.273"/>
	</g>
	<g>
		<path style="fill:#B6B6B6;" d="M255,511c-6.982,0-11.636-4.655-11.636-11.636V10.636C243.364,3.655,248.018-1,255-1
			c6.982,0,11.636,4.655,11.636,11.636v488.727C266.636,506.345,261.982,511,255,511z"/>
		<path style="fill:#B6B6B6;" d="M499.364,266.636H10.636C3.655,266.636-1,261.982-1,255c0-6.982,4.655-11.636,11.636-11.636
			h488.727c6.982,0,11.636,4.655,11.636,11.636C511,261.982,506.345,266.636,499.364,266.636z"/>
	</g>
</g>
<g>
</g>
<g>
</g>
<g>
</g>
<g>
</g>
<g>
</g>
<g>
</g>
<g>
</g>
<g>
</g>
<g>
</g>
<g>
</g>
<g>
</g>
<g>
</g>
<g>
</g>
<g>
</g>
<g>
</g>
</svg>
